<mxfile host="app.diagrams.net" modified="2022-09-18T05:26:38.057Z" agent="5.0 (Windows NT 10.0; Win64; x64) AppleWebKit/537.36 (KHTML, like Gecko) Chrome/105.0.0.0 Safari/537.36" etag="T68MjXkiCyjQ5oKHSxZt" version="20.3.0" type="github">
  <diagram id="prtHgNgQTEPvFCAcTncT" name="Page-1">
    <mxGraphModel dx="1509" dy="836" grid="0" gridSize="10" guides="1" tooltips="1" connect="1" arrows="1" fold="1" page="1" pageScale="1" pageWidth="1654" pageHeight="2336" math="0" shadow="0">
      <root>
        <mxCell id="0" />
        <mxCell id="1" parent="0" />
        <mxCell id="ckfa2BOrWZ8mFEcfljx2-85" value="" style="rounded=1;whiteSpace=wrap;html=1;dashed=1;fontFamily=Times New Roman;fontSize=30;" vertex="1" parent="1">
          <mxGeometry x="692" y="980" width="687" height="369" as="geometry" />
        </mxCell>
        <mxCell id="ckfa2BOrWZ8mFEcfljx2-84" value="" style="rounded=1;whiteSpace=wrap;html=1;fontFamily=Times New Roman;fontSize=30;dashed=1;" vertex="1" parent="1">
          <mxGeometry x="40" y="499" width="1342" height="346" as="geometry" />
        </mxCell>
        <mxCell id="ckfa2BOrWZ8mFEcfljx2-11" style="edgeStyle=orthogonalEdgeStyle;rounded=0;orthogonalLoop=1;jettySize=auto;html=1;exitX=0.5;exitY=0;exitDx=0;exitDy=0;exitPerimeter=0;fillColor=#b1ddf0;strokeColor=#10739e;strokeWidth=3;" edge="1" parent="1" source="ckfa2BOrWZ8mFEcfljx2-8" target="ckfa2BOrWZ8mFEcfljx2-10">
          <mxGeometry relative="1" as="geometry" />
        </mxCell>
        <mxCell id="ckfa2BOrWZ8mFEcfljx2-8" value="" style="shape=cylinder3;whiteSpace=wrap;html=1;boundedLbl=1;backgroundOutline=1;size=15;" vertex="1" parent="1">
          <mxGeometry x="1124" y="1191" width="119" height="79" as="geometry" />
        </mxCell>
        <mxCell id="ckfa2BOrWZ8mFEcfljx2-37" style="rounded=0;orthogonalLoop=1;jettySize=auto;html=1;exitX=0.5;exitY=0;exitDx=0;exitDy=0;fontFamily=Times New Roman;fontSize=22;fillColor=#0050ef;strokeColor=#001DBC;strokeWidth=3;" edge="1" parent="1" source="ckfa2BOrWZ8mFEcfljx2-10">
          <mxGeometry relative="1" as="geometry">
            <mxPoint x="1183" y="939" as="targetPoint" />
          </mxGeometry>
        </mxCell>
        <mxCell id="ckfa2BOrWZ8mFEcfljx2-10" value="&lt;font style=&quot;font-size: 24px;&quot; face=&quot;Times New Roman&quot;&gt;code preprocessing&lt;/font&gt;" style="rounded=0;whiteSpace=wrap;html=1;" vertex="1" parent="1">
          <mxGeometry x="1063.5" y="1028" width="239" height="59" as="geometry" />
        </mxCell>
        <mxCell id="ckfa2BOrWZ8mFEcfljx2-14" style="edgeStyle=none;rounded=0;orthogonalLoop=1;jettySize=auto;html=1;exitX=0;exitY=0.3333333333333333;exitDx=0;exitDy=0;exitPerimeter=0;" edge="1" parent="1">
          <mxGeometry relative="1" as="geometry">
            <mxPoint x="378" y="1152.8333333333333" as="sourcePoint" />
            <mxPoint x="378" y="1152.8333333333333" as="targetPoint" />
          </mxGeometry>
        </mxCell>
        <mxCell id="ckfa2BOrWZ8mFEcfljx2-15" value="&lt;font style=&quot;font-size: 30px;&quot; face=&quot;Times New Roman&quot;&gt;web&lt;/font&gt;" style="rounded=0;whiteSpace=wrap;html=1;" vertex="1" parent="1">
          <mxGeometry x="380" y="880" width="964" height="60" as="geometry" />
        </mxCell>
        <mxCell id="ckfa2BOrWZ8mFEcfljx2-35" style="edgeStyle=orthogonalEdgeStyle;rounded=0;orthogonalLoop=1;jettySize=auto;html=1;exitX=0.5;exitY=1;exitDx=0;exitDy=0;entryX=0.176;entryY=0.026;entryDx=0;entryDy=0;entryPerimeter=0;fontFamily=Times New Roman;fontSize=22;fillColor=#a20025;strokeColor=#6F0000;strokeWidth=3;" edge="1" parent="1" source="ckfa2BOrWZ8mFEcfljx2-20" target="ckfa2BOrWZ8mFEcfljx2-15">
          <mxGeometry relative="1" as="geometry" />
        </mxCell>
        <mxCell id="ckfa2BOrWZ8mFEcfljx2-20" value="&lt;font style=&quot;font-size: 24px;&quot; face=&quot;Times New Roman&quot;&gt;result visualization&lt;/font&gt;" style="rounded=0;whiteSpace=wrap;html=1;" vertex="1" parent="1">
          <mxGeometry x="453" y="699" width="194" height="60" as="geometry" />
        </mxCell>
        <mxCell id="ckfa2BOrWZ8mFEcfljx2-23" value="" style="edgeStyle=orthogonalEdgeStyle;rounded=0;orthogonalLoop=1;jettySize=auto;html=1;fontFamily=Times New Roman;fontSize=13;fillColor=#6a00ff;strokeColor=#3700CC;strokeWidth=3;" edge="1" parent="1" source="ckfa2BOrWZ8mFEcfljx2-21" target="ckfa2BOrWZ8mFEcfljx2-22">
          <mxGeometry relative="1" as="geometry" />
        </mxCell>
        <mxCell id="ckfa2BOrWZ8mFEcfljx2-31" style="edgeStyle=orthogonalEdgeStyle;rounded=0;orthogonalLoop=1;jettySize=auto;html=1;exitX=0.833;exitY=0.058;exitDx=0;exitDy=0;entryX=0.5;entryY=1;entryDx=0;entryDy=0;fontFamily=Times New Roman;fontSize=22;exitPerimeter=0;fillColor=#0050ef;strokeColor=#001DBC;strokeWidth=3;" edge="1" parent="1" source="ckfa2BOrWZ8mFEcfljx2-15" target="ckfa2BOrWZ8mFEcfljx2-21">
          <mxGeometry relative="1" as="geometry" />
        </mxCell>
        <mxCell id="ckfa2BOrWZ8mFEcfljx2-21" value="&lt;font style=&quot;font-size: 24px;&quot; face=&quot;Times New Roman&quot;&gt;running&lt;/font&gt;" style="rounded=0;whiteSpace=wrap;html=1;" vertex="1" parent="1">
          <mxGeometry x="1123" y="699" width="120" height="60" as="geometry" />
        </mxCell>
        <mxCell id="ckfa2BOrWZ8mFEcfljx2-26" style="edgeStyle=orthogonalEdgeStyle;rounded=0;orthogonalLoop=1;jettySize=auto;html=1;exitX=0;exitY=0.75;exitDx=0;exitDy=0;entryX=1;entryY=0.75;entryDx=0;entryDy=0;fontFamily=Times New Roman;fontSize=22;fillColor=#6a00ff;strokeColor=#3700CC;strokeWidth=3;" edge="1" parent="1" source="ckfa2BOrWZ8mFEcfljx2-22" target="ckfa2BOrWZ8mFEcfljx2-20">
          <mxGeometry relative="1" as="geometry" />
        </mxCell>
        <mxCell id="ckfa2BOrWZ8mFEcfljx2-27" style="edgeStyle=orthogonalEdgeStyle;rounded=0;orthogonalLoop=1;jettySize=auto;html=1;exitX=0;exitY=0.25;exitDx=0;exitDy=0;entryX=1;entryY=0.25;entryDx=0;entryDy=0;fontFamily=Times New Roman;fontSize=22;fillColor=#fa6800;strokeColor=#C73500;strokeWidth=3;" edge="1" parent="1" source="ckfa2BOrWZ8mFEcfljx2-22" target="ckfa2BOrWZ8mFEcfljx2-20">
          <mxGeometry relative="1" as="geometry" />
        </mxCell>
        <mxCell id="ckfa2BOrWZ8mFEcfljx2-30" style="edgeStyle=orthogonalEdgeStyle;rounded=0;orthogonalLoop=1;jettySize=auto;html=1;exitX=0.5;exitY=0;exitDx=0;exitDy=0;entryX=0.5;entryY=1;entryDx=0;entryDy=0;fontFamily=Times New Roman;fontSize=22;fillColor=#e3c800;strokeColor=#B09500;strokeWidth=3;" edge="1" parent="1" source="ckfa2BOrWZ8mFEcfljx2-15" target="ckfa2BOrWZ8mFEcfljx2-22">
          <mxGeometry relative="1" as="geometry" />
        </mxCell>
        <mxCell id="ckfa2BOrWZ8mFEcfljx2-22" value="&lt;font style=&quot;font-size: 24px;&quot; face=&quot;Times New Roman&quot;&gt;debugging&lt;/font&gt;" style="rounded=0;whiteSpace=wrap;html=1;" vertex="1" parent="1">
          <mxGeometry x="802" y="699" width="120" height="60" as="geometry" />
        </mxCell>
        <mxCell id="ckfa2BOrWZ8mFEcfljx2-40" style="rounded=0;orthogonalLoop=1;jettySize=auto;html=1;fontFamily=Times New Roman;fontSize=22;fillColor=#a20025;strokeColor=#6F0000;strokeWidth=3;" edge="1" parent="1" target="ckfa2BOrWZ8mFEcfljx2-36">
          <mxGeometry relative="1" as="geometry">
            <mxPoint x="549" y="943" as="sourcePoint" />
            <mxPoint x="818" y="1224" as="targetPoint" />
          </mxGeometry>
        </mxCell>
        <mxCell id="ckfa2BOrWZ8mFEcfljx2-41" style="edgeStyle=orthogonalEdgeStyle;rounded=0;orthogonalLoop=1;jettySize=auto;html=1;entryX=0.5;entryY=1;entryDx=0;entryDy=0;fontFamily=Times New Roman;fontSize=22;fillColor=#e3c800;strokeColor=#B09500;strokeWidth=3;" edge="1" parent="1" target="ckfa2BOrWZ8mFEcfljx2-15">
          <mxGeometry relative="1" as="geometry">
            <mxPoint x="862" y="1136" as="sourcePoint" />
          </mxGeometry>
        </mxCell>
        <mxCell id="ckfa2BOrWZ8mFEcfljx2-42" style="rounded=0;orthogonalLoop=1;jettySize=auto;html=1;entryX=0;entryY=0.5;entryDx=0;entryDy=0;fontFamily=Times New Roman;fontSize=22;fillColor=#6d8764;strokeColor=#99FF33;strokeWidth=3;" edge="1" parent="1" target="ckfa2BOrWZ8mFEcfljx2-10">
          <mxGeometry relative="1" as="geometry">
            <mxPoint x="904" y="1167" as="sourcePoint" />
          </mxGeometry>
        </mxCell>
        <mxCell id="ckfa2BOrWZ8mFEcfljx2-36" value="Actor" style="shape=umlActor;verticalLabelPosition=bottom;verticalAlign=top;html=1;outlineConnect=0;fontFamily=Times New Roman;fontSize=22;" vertex="1" parent="1">
          <mxGeometry x="821" y="1151" width="82" height="147" as="geometry" />
        </mxCell>
        <mxCell id="ckfa2BOrWZ8mFEcfljx2-47" value="" style="endArrow=classic;html=1;rounded=0;strokeWidth=3;fontFamily=Times New Roman;fontSize=28;fillColor=#1ba1e2;strokeColor=#006EAF;" edge="1" parent="1">
          <mxGeometry width="50" height="50" relative="1" as="geometry">
            <mxPoint x="84" y="1034.5" as="sourcePoint" />
            <mxPoint x="151" y="1034.5" as="targetPoint" />
          </mxGeometry>
        </mxCell>
        <mxCell id="ckfa2BOrWZ8mFEcfljx2-49" value="" style="endArrow=classic;html=1;rounded=0;strokeWidth=3;fontFamily=Times New Roman;fontSize=28;fillColor=#0050ef;strokeColor=#99FF33;" edge="1" parent="1">
          <mxGeometry width="50" height="50" relative="1" as="geometry">
            <mxPoint x="83" y="1077.5" as="sourcePoint" />
            <mxPoint x="150" y="1077.5" as="targetPoint" />
          </mxGeometry>
        </mxCell>
        <mxCell id="ckfa2BOrWZ8mFEcfljx2-50" value="" style="endArrow=classic;html=1;rounded=0;strokeWidth=3;fontFamily=Times New Roman;fontSize=28;fillColor=#e3c800;strokeColor=#B09500;" edge="1" parent="1">
          <mxGeometry width="50" height="50" relative="1" as="geometry">
            <mxPoint x="82" y="1168.5" as="sourcePoint" />
            <mxPoint x="149" y="1168.5" as="targetPoint" />
          </mxGeometry>
        </mxCell>
        <mxCell id="ckfa2BOrWZ8mFEcfljx2-51" value="" style="endArrow=classic;html=1;rounded=0;strokeWidth=3;fontFamily=Times New Roman;fontSize=28;fillColor=#fa6800;strokeColor=#C73500;" edge="1" parent="1">
          <mxGeometry width="50" height="50" relative="1" as="geometry">
            <mxPoint x="82" y="1258.5" as="sourcePoint" />
            <mxPoint x="149" y="1258.5" as="targetPoint" />
          </mxGeometry>
        </mxCell>
        <mxCell id="ckfa2BOrWZ8mFEcfljx2-52" value="" style="endArrow=classic;html=1;rounded=0;strokeWidth=3;fontFamily=Times New Roman;fontSize=28;fillColor=#6a00ff;strokeColor=#3700CC;" edge="1" parent="1">
          <mxGeometry width="50" height="50" relative="1" as="geometry">
            <mxPoint x="82" y="1215.5" as="sourcePoint" />
            <mxPoint x="149" y="1215.5" as="targetPoint" />
          </mxGeometry>
        </mxCell>
        <mxCell id="ckfa2BOrWZ8mFEcfljx2-53" value="" style="endArrow=classic;html=1;rounded=0;strokeWidth=3;fontFamily=Times New Roman;fontSize=28;fillColor=#0050ef;strokeColor=#001DBC;" edge="1" parent="1">
          <mxGeometry width="50" height="50" relative="1" as="geometry">
            <mxPoint x="82" y="1123.5" as="sourcePoint" />
            <mxPoint x="149" y="1123.5" as="targetPoint" />
          </mxGeometry>
        </mxCell>
        <mxCell id="ckfa2BOrWZ8mFEcfljx2-54" value="" style="endArrow=classic;html=1;rounded=0;strokeWidth=3;fontFamily=Times New Roman;fontSize=28;fillColor=#a20025;strokeColor=#6F0000;" edge="1" parent="1">
          <mxGeometry width="50" height="50" relative="1" as="geometry">
            <mxPoint x="82" y="1301.5" as="sourcePoint" />
            <mxPoint x="149" y="1301.5" as="targetPoint" />
          </mxGeometry>
        </mxCell>
        <mxCell id="ckfa2BOrWZ8mFEcfljx2-56" value="origin code file" style="text;html=1;strokeColor=none;fillColor=none;align=center;verticalAlign=middle;whiteSpace=wrap;rounded=0;fontFamily=Times New Roman;fontSize=28;" vertex="1" parent="1">
          <mxGeometry x="157" y="1012.5" width="213" height="40" as="geometry" />
        </mxCell>
        <mxCell id="ckfa2BOrWZ8mFEcfljx2-57" value="added code for debugging" style="text;html=1;strokeColor=none;fillColor=none;align=center;verticalAlign=middle;whiteSpace=wrap;rounded=0;fontFamily=Times New Roman;fontSize=28;" vertex="1" parent="1">
          <mxGeometry x="157" y="1058.5" width="331" height="38" as="geometry" />
        </mxCell>
        <mxCell id="ckfa2BOrWZ8mFEcfljx2-58" value="debug code file" style="text;html=1;strokeColor=none;fillColor=none;align=center;verticalAlign=middle;whiteSpace=wrap;rounded=0;fontFamily=Times New Roman;fontSize=28;" vertex="1" parent="1">
          <mxGeometry x="157" y="1102.5" width="209" height="39" as="geometry" />
        </mxCell>
        <mxCell id="ckfa2BOrWZ8mFEcfljx2-59" value="debug parameters" style="text;html=1;strokeColor=none;fillColor=none;align=center;verticalAlign=middle;whiteSpace=wrap;rounded=0;fontFamily=Times New Roman;fontSize=28;" vertex="1" parent="1">
          <mxGeometry x="157" y="1150.5" width="235" height="34" as="geometry" />
        </mxCell>
        <mxCell id="ckfa2BOrWZ8mFEcfljx2-60" value="middle data" style="text;html=1;strokeColor=none;fillColor=none;align=center;verticalAlign=middle;whiteSpace=wrap;rounded=0;fontFamily=Times New Roman;fontSize=28;" vertex="1" parent="1">
          <mxGeometry x="157" y="1192.5" width="167" height="39" as="geometry" />
        </mxCell>
        <mxCell id="ckfa2BOrWZ8mFEcfljx2-61" value="result" style="text;html=1;strokeColor=none;fillColor=none;align=center;verticalAlign=middle;whiteSpace=wrap;rounded=0;fontFamily=Times New Roman;fontSize=28;" vertex="1" parent="1">
          <mxGeometry x="150" y="1231.5" width="115" height="48" as="geometry" />
        </mxCell>
        <mxCell id="ckfa2BOrWZ8mFEcfljx2-62" value="plots, charts &amp;amp; statements&amp;nbsp;" style="text;html=1;strokeColor=none;fillColor=none;align=center;verticalAlign=middle;whiteSpace=wrap;rounded=0;fontFamily=Times New Roman;fontSize=28;" vertex="1" parent="1">
          <mxGeometry x="150" y="1279.5" width="343" height="37" as="geometry" />
        </mxCell>
        <mxCell id="ckfa2BOrWZ8mFEcfljx2-82" style="edgeStyle=orthogonalEdgeStyle;rounded=0;orthogonalLoop=1;jettySize=auto;html=1;entryX=0.5;entryY=0;entryDx=0;entryDy=0;strokeColor=#33001A;strokeWidth=3;fontFamily=Times New Roman;fontSize=28;exitX=1;exitY=0.5;exitDx=0;exitDy=0;" edge="1" parent="1" source="ckfa2BOrWZ8mFEcfljx2-77" target="ckfa2BOrWZ8mFEcfljx2-22">
          <mxGeometry relative="1" as="geometry" />
        </mxCell>
        <mxCell id="ckfa2BOrWZ8mFEcfljx2-76" value="Rules" style="swimlane;fontStyle=0;childLayout=stackLayout;horizontal=1;startSize=30;horizontalStack=0;resizeParent=1;resizeParentMax=0;resizeLast=0;collapsible=1;marginBottom=0;fontFamily=Times New Roman;fontSize=28;" vertex="1" parent="1">
          <mxGeometry x="112" y="519" width="275" height="260" as="geometry" />
        </mxCell>
        <mxCell id="ckfa2BOrWZ8mFEcfljx2-77" value="Loss and accuracy " style="text;strokeColor=none;fillColor=none;align=left;verticalAlign=middle;spacingLeft=4;spacingRight=4;overflow=hidden;points=[[0,0.5],[1,0.5]];portConstraint=eastwest;rotatable=0;fontFamily=Times New Roman;fontSize=28;" vertex="1" parent="ckfa2BOrWZ8mFEcfljx2-76">
          <mxGeometry y="30" width="275" height="46" as="geometry" />
        </mxCell>
        <mxCell id="ckfa2BOrWZ8mFEcfljx2-78" value="weights" style="text;strokeColor=none;fillColor=none;align=left;verticalAlign=middle;spacingLeft=4;spacingRight=4;overflow=hidden;points=[[0,0.5],[1,0.5]];portConstraint=eastwest;rotatable=0;fontFamily=Times New Roman;fontSize=28;" vertex="1" parent="ckfa2BOrWZ8mFEcfljx2-76">
          <mxGeometry y="76" width="275" height="46" as="geometry" />
        </mxCell>
        <mxCell id="ckfa2BOrWZ8mFEcfljx2-79" value="Gradients" style="text;strokeColor=none;fillColor=none;align=left;verticalAlign=middle;spacingLeft=4;spacingRight=4;overflow=hidden;points=[[0,0.5],[1,0.5]];portConstraint=eastwest;rotatable=0;fontFamily=Times New Roman;fontSize=28;" vertex="1" parent="ckfa2BOrWZ8mFEcfljx2-76">
          <mxGeometry y="122" width="275" height="46" as="geometry" />
        </mxCell>
        <mxCell id="ckfa2BOrWZ8mFEcfljx2-80" value="Tensor" style="text;strokeColor=none;fillColor=none;align=left;verticalAlign=middle;spacingLeft=4;spacingRight=4;overflow=hidden;points=[[0,0.5],[1,0.5]];portConstraint=eastwest;rotatable=0;fontFamily=Times New Roman;fontSize=28;" vertex="1" parent="ckfa2BOrWZ8mFEcfljx2-76">
          <mxGeometry y="168" width="275" height="46" as="geometry" />
        </mxCell>
        <mxCell id="ckfa2BOrWZ8mFEcfljx2-81" value="Activation function" style="text;strokeColor=none;fillColor=none;align=left;verticalAlign=middle;spacingLeft=4;spacingRight=4;overflow=hidden;points=[[0,0.5],[1,0.5]];portConstraint=eastwest;rotatable=0;fontFamily=Times New Roman;fontSize=28;" vertex="1" parent="ckfa2BOrWZ8mFEcfljx2-76">
          <mxGeometry y="214" width="275" height="46" as="geometry" />
        </mxCell>
        <mxCell id="ckfa2BOrWZ8mFEcfljx2-87" value="Server" style="text;html=1;strokeColor=none;fillColor=none;align=center;verticalAlign=middle;whiteSpace=wrap;rounded=0;dashed=1;fontFamily=Times New Roman;fontSize=35;" vertex="1" parent="1">
          <mxGeometry x="1022" y="570" width="60" height="30" as="geometry" />
        </mxCell>
        <mxCell id="ckfa2BOrWZ8mFEcfljx2-88" value="Client" style="text;html=1;strokeColor=none;fillColor=none;align=center;verticalAlign=middle;whiteSpace=wrap;rounded=0;dashed=1;fontFamily=Times New Roman;fontSize=35;" vertex="1" parent="1">
          <mxGeometry x="1022" y="1275" width="60" height="77" as="geometry" />
        </mxCell>
      </root>
    </mxGraphModel>
  </diagram>
</mxfile>
